<svg id="Layer_1" data-name="Layer 1" xmlns="http://www.w3.org/2000/svg" viewBox="0 0 787.89 120.3"><defs><style>.cls-1{fill:none;}.cls-2{fill:#ffc959;}.cls-3{fill:#53ab47;}.cls-4{fill:#aab146;}.cls-5{fill:#389946;}.cls-6,.cls-7{fill:#29474c;}.cls-6{fill-rule:evenodd;}</style></defs><title>Logos</title><polygon class="cls-1" points="82.98 98.89 82.98 98.46 82.41 98.89 82.98 98.89"/><path class="cls-2" d="M26.35,18.62S45.41,29.36,58,46.93a102.51,102.51,0,0,1,15.31-8.73C53.85,12.61.13,0,.13,0s-1.23,25.45,4,49.83C12.51,31.74,26.35,18.62,26.35,18.62Z"/><path class="cls-3" d="M36.8,71.32C41.22,61,49.3,53,58,46.93c-12.54-17.57-31.6-28.31-31.6-28.31S12.51,31.74,4.13,49.83c2.48,11.55,6.42,22.87,12.64,31.12A41.26,41.26,0,0,0,32.91,93.84,52.9,52.9,0,0,1,36.8,71.32Z"/><path class="cls-4" d="M68.39,72.09c1.07,8.95-.66,17.76-3.71,25.82a60.86,60.86,0,0,0,8.13-1.46S92.69,64,73.35,38.31l-0.08-.1A102.51,102.51,0,0,0,58,46.93C63.17,54.24,67.26,62.71,68.39,72.09Z"/><path class="cls-5" d="M64.68,97.91c3.05-8.06,4.78-16.87,3.71-25.82C67.26,62.71,63.17,54.24,58,46.93,49.3,53,41.22,61,36.8,71.32a52.9,52.9,0,0,0-3.88,22.52C44.38,99,56.79,98.85,64.68,97.91Z"/><path class="cls-6" d="M90.91,115.83C80.77,101.12,71.37,88,62.76,76.38L71.3,48.27,58.89,71.19q-6.35-8.48-12.08-15.84L56,28.17,44.11,51.88q-6.59-8.4-12.26-15.32l4.31-19.21L29.41,33.6C10.41,10.61,0,.65,0,0.65S11,13.3,27.92,35.88L4.21,39h26q5,6.7,10.52,14.45L13.49,60.64l30.31-2.92q5.55,7.85,11.52,16.65L26.57,82l32.09-2.71c8.34,12.44,17.14,26.15,26.11,41Z"/><path class="cls-7" d="M117.08,51.07V44h31.13v7H136.82V82h-8.35v-31H117.08Z"/><path class="cls-7" d="M145,63a8.78,8.78,0,0,1,1.33-4.42,9.06,9.06,0,0,1,3-2.82,13,13,0,0,1,4.07-1.52,23.2,23.2,0,0,1,4.55-.45,31,31,0,0,1,4.2.29A12.89,12.89,0,0,1,166,55.22a7.66,7.66,0,0,1,2.87,2.37,6.62,6.62,0,0,1,1.12,4V75.92a28.71,28.71,0,0,0,.21,3.57A6.43,6.43,0,0,0,171,82h-7.66a10.73,10.73,0,0,1-.35-1.3,11.15,11.15,0,0,1-.19-1.36A9.85,9.85,0,0,1,158.53,82a17.09,17.09,0,0,1-5,.75,13.51,13.51,0,0,1-3.67-.48,8.4,8.4,0,0,1-3-1.49,6.93,6.93,0,0,1-2-2.55,8.63,8.63,0,0,1-.72-3.67,8,8,0,0,1,.83-3.86,6.89,6.89,0,0,1,2.13-2.42,9.55,9.55,0,0,1,3-1.36,32.05,32.05,0,0,1,3.38-.72q1.7-.27,3.35-0.43a20.18,20.18,0,0,0,2.93-.48,5.1,5.1,0,0,0,2-.93,2,2,0,0,0,.69-1.78,4,4,0,0,0-.4-1.94A2.93,2.93,0,0,0,161,59.5a4.2,4.2,0,0,0-1.54-.53,12.67,12.67,0,0,0-1.89-.13,5.74,5.74,0,0,0-3.51,1A4.27,4.27,0,0,0,152.57,63H145Zm17.45,5.59a3.37,3.37,0,0,1-1.2.67,12.24,12.24,0,0,1-1.54.4q-0.83.16-1.73,0.27t-1.81.27a13.64,13.64,0,0,0-1.68.43,5,5,0,0,0-1.44.72,3.41,3.41,0,0,0-1,1.14,3.68,3.68,0,0,0-.37,1.76,3.55,3.55,0,0,0,.37,1.7,2.85,2.85,0,0,0,1,1.09,4.26,4.26,0,0,0,1.49.56,9.5,9.5,0,0,0,1.76.16,6.68,6.68,0,0,0,3.46-.74,5,5,0,0,0,1.81-1.78,5.7,5.7,0,0,0,.72-2.1,14.52,14.52,0,0,0,.13-1.7V68.57Z"/><path class="cls-7" d="M182.9,44V57.88H183a8.06,8.06,0,0,1,3.75-3.11,12.7,12.7,0,0,1,4.92-1,10.49,10.49,0,0,1,7.74,3.46,13.34,13.34,0,0,1,2.63,4.5,18.87,18.87,0,0,1,1,6.52,18.87,18.87,0,0,1-1,6.52,13.33,13.33,0,0,1-2.63,4.5,10.49,10.49,0,0,1-7.74,3.46,14.51,14.51,0,0,1-5.43-1,6.89,6.89,0,0,1-3.62-3.25h-0.11V82h-7.18V44h7.56ZM195.14,65A8.77,8.77,0,0,0,194,62.14a6.14,6.14,0,0,0-2-1.94,6.16,6.16,0,0,0-5.77,0,6,6,0,0,0-2,1.94A8.76,8.76,0,0,0,183,65a14.7,14.7,0,0,0-.37,3.35,14.46,14.46,0,0,0,.37,3.3,8.74,8.74,0,0,0,1.17,2.82,6,6,0,0,0,2,1.94,6.16,6.16,0,0,0,5.77,0,6.12,6.12,0,0,0,2-1.94,8.75,8.75,0,0,0,1.17-2.82,14.51,14.51,0,0,0,.37-3.3A14.76,14.76,0,0,0,195.14,65Z"/><path class="cls-7" d="M215.1,44V82h-7.56V44h7.56Z"/><path class="cls-7" d="M228.62,75.44a7.75,7.75,0,0,0,8.83.51,4.75,4.75,0,0,0,2-2.42h6.65q-1.6,4.95-4.9,7.08a14.41,14.41,0,0,1-8,2.13,15.72,15.72,0,0,1-5.85-1,12.16,12.16,0,0,1-4.42-3,13.28,13.28,0,0,1-2.79-4.58,16.73,16.73,0,0,1-1-5.85,16,16,0,0,1,1-5.75,13.3,13.3,0,0,1,7.32-7.66,14.25,14.25,0,0,1,5.72-1.12,13.08,13.08,0,0,1,6.12,1.36,12.22,12.22,0,0,1,4.28,3.65A15,15,0,0,1,246.07,64a19.45,19.45,0,0,1,.53,6.12H226.75Q226.91,73.79,228.62,75.44ZM237.16,61A5.31,5.31,0,0,0,233,59.48a6.58,6.58,0,0,0-3,.61,5.73,5.73,0,0,0-1.92,1.52,5.55,5.55,0,0,0-1,1.92,8.61,8.61,0,0,0-.35,1.81H239A8.73,8.73,0,0,0,237.16,61Z"/><path class="cls-7" d="M258.31,44V82h-7.56V44h7.56Z"/><path class="cls-7" d="M263.42,63a8.78,8.78,0,0,1,1.33-4.42,9.06,9.06,0,0,1,3-2.82,13,13,0,0,1,4.07-1.52,23.2,23.2,0,0,1,4.55-.45,31,31,0,0,1,4.2.29,12.89,12.89,0,0,1,3.88,1.14,7.66,7.66,0,0,1,2.87,2.37,6.62,6.62,0,0,1,1.12,4V75.92a28.71,28.71,0,0,0,.21,3.57,6.43,6.43,0,0,0,.75,2.55h-7.66a10.73,10.73,0,0,1-.35-1.3,11.15,11.15,0,0,1-.19-1.36A9.85,9.85,0,0,1,276.93,82a17.09,17.09,0,0,1-5,.75,13.51,13.51,0,0,1-3.67-.48,8.4,8.4,0,0,1-3-1.49,6.93,6.93,0,0,1-2-2.55,8.63,8.63,0,0,1-.72-3.67,8,8,0,0,1,.83-3.86,6.89,6.89,0,0,1,2.13-2.42,9.55,9.55,0,0,1,3-1.36,32.05,32.05,0,0,1,3.38-.72q1.7-.27,3.35-0.43a20.18,20.18,0,0,0,2.93-.48,5.1,5.1,0,0,0,2-.93,2,2,0,0,0,.69-1.78,4,4,0,0,0-.4-1.94,2.93,2.93,0,0,0-1.06-1.12,4.2,4.2,0,0,0-1.54-.53,12.67,12.67,0,0,0-1.89-.13,5.74,5.74,0,0,0-3.51,1A4.27,4.27,0,0,0,271,63h-7.56Zm17.45,5.59a3.37,3.37,0,0,1-1.2.67,12.24,12.24,0,0,1-1.54.4q-0.83.16-1.73,0.27t-1.81.27a13.64,13.64,0,0,0-1.68.43,5,5,0,0,0-1.44.72,3.41,3.41,0,0,0-1,1.14,3.68,3.68,0,0,0-.37,1.76,3.55,3.55,0,0,0,.37,1.7,2.85,2.85,0,0,0,1,1.09,4.26,4.26,0,0,0,1.49.56,9.5,9.5,0,0,0,1.76.16,6.68,6.68,0,0,0,3.46-.74A5,5,0,0,0,280,75.2a5.7,5.7,0,0,0,.72-2.1,14.52,14.52,0,0,0,.13-1.7V68.57Z"/><path class="cls-7" d="M300.93,54.53v3.83h0.16a8.67,8.67,0,0,1,3.73-3.49,10.78,10.78,0,0,1,4.68-1.09,12.84,12.84,0,0,1,5,.82,7.39,7.39,0,0,1,3.06,2.29,8.87,8.87,0,0,1,1.57,3.57,22.23,22.23,0,0,1,.45,4.66V82H312V66.5a9.65,9.65,0,0,0-1.06-5.08,4.12,4.12,0,0,0-3.78-1.68,5.23,5.23,0,0,0-4.47,1.84q-1.38,1.84-1.38,6V82h-7.56V54.53h7.18Z"/><path class="cls-7" d="M344.3,78.53a7.8,7.8,0,0,1-3.49,3.22,11.6,11.6,0,0,1-4.87,1,11.77,11.77,0,0,1-5.43-1.2,10.89,10.89,0,0,1-3.86-3.25,14.7,14.7,0,0,1-2.29-4.71A19.76,19.76,0,0,1,323.6,68a18.56,18.56,0,0,1,.77-5.35,13.89,13.89,0,0,1,2.29-4.55,11.11,11.11,0,0,1,9.13-4.36,10.82,10.82,0,0,1,4.66,1,8.12,8.12,0,0,1,3.49,3.06H344V44h7.56V82h-7.18V78.53H344.3ZM344,64.93a8,8,0,0,0-1.09-2.77,6.15,6.15,0,0,0-2-1.94,5.85,5.85,0,0,0-3.09-.75,6.14,6.14,0,0,0-3.14.75,5.9,5.9,0,0,0-2,2A8.69,8.69,0,0,0,331.5,65a15.12,15.12,0,0,0-.35,3.27,14,14,0,0,0,.37,3.19,8.69,8.69,0,0,0,1.2,2.85,6.63,6.63,0,0,0,2.08,2,5.61,5.61,0,0,0,3,.77,6,6,0,0,0,3.11-.75,5.66,5.66,0,0,0,2-2A8.94,8.94,0,0,0,344,71.5a16.78,16.78,0,0,0,.32-3.3A16.39,16.39,0,0,0,344,64.93Z"/><path class="cls-7" d="M395.17,81.59a18,18,0,0,1-6.65,1.3,17.75,17.75,0,0,1-7.61-1.57,17.18,17.18,0,0,1-5.69-4.23A18.49,18.49,0,0,1,371.65,71a21.36,21.36,0,0,1-1.22-7.18,26.93,26.93,0,0,1,1.14-7.9A19.45,19.45,0,0,1,375,49.31a16.55,16.55,0,0,1,5.64-4.5,17.57,17.57,0,0,1,7.9-1.68,22.92,22.92,0,0,1,5.83.72,14.76,14.76,0,0,1,4.9,2.26A13.45,13.45,0,0,1,402.86,50a15.39,15.39,0,0,1,2,5.72H399.8A10,10,0,0,0,398.42,52a8.92,8.92,0,0,0-2.5-2.58,11.1,11.1,0,0,0-3.38-1.52,15.49,15.49,0,0,0-4-.51,11.56,11.56,0,0,0-10,5,15.9,15.9,0,0,0-2.31,5.16,23.74,23.74,0,0,0-.74,5.93,19.15,19.15,0,0,0,.85,5.72,14.92,14.92,0,0,0,2.5,4.84,12.23,12.23,0,0,0,4.07,3.35,12.06,12.06,0,0,0,5.61,1.25,13.55,13.55,0,0,0,5.27-1A10.85,10.85,0,0,0,400,71.16a12.92,12.92,0,0,0,.69-4.87H388.58V62h16.66V82H402l-1.33-4.74A12.63,12.63,0,0,1,395.17,81.59Z"/><path class="cls-7" d="M435.78,81.93a6.41,6.41,0,0,1-3.25.69,3.89,3.89,0,0,1-2.79-1,4.28,4.28,0,0,1-1-3.22,10.83,10.83,0,0,1-4.34,3.22,15,15,0,0,1-8.89.56,8.21,8.21,0,0,1-2.9-1.33,6.37,6.37,0,0,1-1.94-2.37,8,8,0,0,1-.72-3.54,8.08,8.08,0,0,1,.8-3.83,7,7,0,0,1,2.1-2.42,9.62,9.62,0,0,1,3-1.41q1.68-.48,3.43-0.8t3.54-.56a19.63,19.63,0,0,0,3-.53,4.92,4.92,0,0,0,2-1,2.47,2.47,0,0,0,.75-1.94,4.52,4.52,0,0,0-.56-2.39,3.83,3.83,0,0,0-1.44-1.38,5.85,5.85,0,0,0-2-.64,14.94,14.94,0,0,0-2.15-.16A9.57,9.57,0,0,0,417.58,59q-1.92,1.09-2.08,4.12H411A9.77,9.77,0,0,1,412,58.78a8.07,8.07,0,0,1,2.55-2.85,10.72,10.72,0,0,1,3.65-1.57,19.24,19.24,0,0,1,4.39-.48,25.78,25.78,0,0,1,3.7.27,9.68,9.68,0,0,1,3.33,1.09,6.38,6.38,0,0,1,2.39,2.31,7.38,7.38,0,0,1,.9,3.88V75.55a10.48,10.48,0,0,0,.19,2.34,1.1,1.1,0,0,0,1.25.74,5.48,5.48,0,0,0,1.38-.21v3.51Zm-7.34-14.1a5.64,5.64,0,0,1-2.24.93q-1.38.29-2.9,0.48t-3.06.42a11.32,11.32,0,0,0-2.77.77,5,5,0,0,0-2,1.51,4.21,4.21,0,0,0-.77,2.67,3.64,3.64,0,0,0,.45,1.88,3.76,3.76,0,0,0,1.17,1.25,4.94,4.94,0,0,0,1.68.69,9.35,9.35,0,0,0,2,.21,10.77,10.77,0,0,0,3.83-.61,8.06,8.06,0,0,0,2.61-1.54,6.06,6.06,0,0,0,1.49-2,5.07,5.07,0,0,0,.48-2V67.83Z"/><path class="cls-7" d="M443.55,54.53v5.8h0.11a12.25,12.25,0,0,1,4-4.95,10.17,10.17,0,0,1,6.07-1.49v4.79a12.79,12.79,0,0,0-4.63.75A7.3,7.3,0,0,0,446,61.6a9,9,0,0,0-1.7,3.49,18.8,18.8,0,0,0-.53,4.71V82h-4.52V54.53h4.26Z"/><path class="cls-7" d="M475.74,82V78.31h-0.11a6.65,6.65,0,0,1-3.51,3.3,13.42,13.42,0,0,1-5.27,1,12.42,12.42,0,0,1-5.56-1.17,11.42,11.42,0,0,1-3.94-3.14A13.67,13.67,0,0,1,455,73.74a18.8,18.8,0,0,1-.8-5.53,19.4,19.4,0,0,1,.77-5.53,13,13,0,0,1,2.34-4.55A11.31,11.31,0,0,1,461.24,55a12.52,12.52,0,0,1,5.51-1.14,13.44,13.44,0,0,1,2.29.21,11.65,11.65,0,0,1,2.45.72,10.46,10.46,0,0,1,2.31,1.33,7.32,7.32,0,0,1,1.84,2h0.11V44h4.52V82h-4.52Zm-16.26-9.76A10.12,10.12,0,0,0,461,75.55a7.55,7.55,0,0,0,2.66,2.29,8.07,8.07,0,0,0,3.8.85A7.47,7.47,0,0,0,474,75.41a9.91,9.91,0,0,0,1.46-3.33,16.1,16.1,0,0,0,0-7.69,9.68,9.68,0,0,0-1.52-3.33,7.75,7.75,0,0,0-2.69-2.31,8.4,8.4,0,0,0-4-.88,7.77,7.77,0,0,0-3.88.9,7.21,7.21,0,0,0-2.55,2.4,10.41,10.41,0,0,0-1.38,3.41,18.05,18.05,0,0,0-.43,3.94A14.05,14.05,0,0,0,459.48,72.27Z"/><path class="cls-7" d="M506.18,80.28a12.49,12.49,0,0,1-7.77,2.34,14.13,14.13,0,0,1-5.72-1.06,11.26,11.26,0,0,1-4.07-3A12.64,12.64,0,0,1,486.14,74a22,22,0,0,1-.93-5.8,16.56,16.56,0,0,1,1-5.75,13.73,13.73,0,0,1,2.69-4.52,12.2,12.2,0,0,1,4.1-3,12.52,12.52,0,0,1,5.19-1.06,11.29,11.29,0,0,1,6.09,1.52,12.06,12.06,0,0,1,3.88,3.86,15.27,15.27,0,0,1,2,5.11,21.91,21.91,0,0,1,.45,5.27H490a10.91,10.91,0,0,0,.43,3.43A7.76,7.76,0,0,0,492,75.94a7.6,7.6,0,0,0,2.71,2,9.36,9.36,0,0,0,3.88.75,7.83,7.83,0,0,0,4.71-1.33,6.43,6.43,0,0,0,2.42-4h4.47A11,11,0,0,1,506.18,80.28Zm-1.09-17.67a7.76,7.76,0,0,0-1.65-2.47A7.85,7.85,0,0,0,501,58.49a7.74,7.74,0,0,0-3.11-.61,7.88,7.88,0,0,0-3.17.61,7.31,7.31,0,0,0-2.42,1.68,8,8,0,0,0-1.6,2.47,9.39,9.39,0,0,0-.69,3h15.8A9.28,9.28,0,0,0,505.09,62.61Z"/><path class="cls-7" d="M519,54.53v4.36h0.11a9.52,9.52,0,0,1,8.94-5,11.94,11.94,0,0,1,4.52.75,7.45,7.45,0,0,1,2.93,2.08,7.71,7.71,0,0,1,1.57,3.17,17,17,0,0,1,.45,4.07V82H533V63.41a5.47,5.47,0,0,0-1.49-4,5.54,5.54,0,0,0-4.1-1.49,9.21,9.21,0,0,0-3.59.64,6.73,6.73,0,0,0-2.53,1.81,7.8,7.8,0,0,0-1.52,2.74,11.14,11.14,0,0,0-.51,3.43V82h-4.52V54.53H519Z"/><path class="cls-7" d="M574.37,81.29a14.7,14.7,0,0,1-6.09,1.33,13.88,13.88,0,0,1-6.17-1.17,10.28,10.28,0,0,1-3.62-2.82,8.72,8.72,0,0,1-1.68-3.41,13.67,13.67,0,0,1-.4-2.93,10.06,10.06,0,0,1,.72-3.94A11.13,11.13,0,0,1,559,65.3a14.58,14.58,0,0,1,2.82-2.45,38.15,38.15,0,0,1,3.43-2q-0.8-1.12-1.54-2.13a23.65,23.65,0,0,1-1.36-2,9.91,9.91,0,0,1-1-2.18,8.9,8.9,0,0,1-.35-2.58,8,8,0,0,1,.56-3,7.32,7.32,0,0,1,1.65-2.5A7.88,7.88,0,0,1,566,44.68a9.83,9.83,0,0,1,3.67-.64,12.43,12.43,0,0,1,3.43.48A8.7,8.7,0,0,1,576,46a7.43,7.43,0,0,1,2,2.45,7.14,7.14,0,0,1,.77,3.38,8.46,8.46,0,0,1-.58,3.17,10.1,10.1,0,0,1-1.6,2.69,14.16,14.16,0,0,1-2.29,2.21,23.87,23.87,0,0,1-2.66,1.78L578.6,70a20.91,20.91,0,0,0,1.22-5.91h4.31q-0.16,1.7-.35,2.9a18,18,0,0,1-.48,2.21,16.9,16.9,0,0,1-.72,2q-0.43,1-1,2.26L589,82h-5.91l-4-4.74A10.53,10.53,0,0,1,574.37,81.29Zm-9.1-16.07a11,11,0,0,0-2.1,1.81,8.15,8.15,0,0,0-1.44,2.26,7.51,7.51,0,0,0-.53,3,5.7,5.7,0,0,0,.61,2.63,6.23,6.23,0,0,0,1.62,2,8,8,0,0,0,2.31,1.3,7.73,7.73,0,0,0,2.69.48,8.9,8.9,0,0,0,4.66-1.22,10.68,10.68,0,0,0,3.43-3.3L567.8,63.68Q566.47,64.42,565.27,65.22ZM571,57.51a10.7,10.7,0,0,0,1.65-1.44,7.24,7.24,0,0,0,1.22-1.78,5,5,0,0,0,.48-2.21,3.93,3.93,0,0,0-1.17-2.85A4.26,4.26,0,0,0,570,48a5,5,0,0,0-3,1,3.5,3.5,0,0,0-1.38,3.06,4.49,4.49,0,0,0,.35,1.7,10.08,10.08,0,0,0,.88,1.68A19.53,19.53,0,0,0,568,57.08l1.28,1.6Q570.09,58.15,571,57.51Z"/><path class="cls-7" d="M613.08,44l12,31.93,12-31.93H644V82h-4.79V50.43h-0.11L627.24,82h-4.31L611.06,50.43H611V82h-4.79V44h6.92Z"/><path class="cls-7" d="M650.49,62.64A12.82,12.82,0,0,1,653,58.06a12,12,0,0,1,4.2-3.06,15.41,15.41,0,0,1,11.52,0A12.11,12.11,0,0,1,673,58.06a12.85,12.85,0,0,1,2.55,4.58,18.33,18.33,0,0,1,.85,5.67,18.08,18.08,0,0,1-.85,5.64A12.88,12.88,0,0,1,673,78.5a11.8,11.8,0,0,1-4.18,3,15.76,15.76,0,0,1-11.52,0,11.74,11.74,0,0,1-4.2-3,12.86,12.86,0,0,1-2.55-4.55,18.06,18.06,0,0,1-.85-5.64A18.31,18.31,0,0,1,650.49,62.64Zm4.6,10.11A9.28,9.28,0,0,0,656.93,76a7.94,7.94,0,0,0,2.74,2,8.34,8.34,0,0,0,6.65,0,8,8,0,0,0,2.74-2,9.3,9.3,0,0,0,1.84-3.25,15.17,15.17,0,0,0,0-8.89,9.61,9.61,0,0,0-1.84-3.27,7.83,7.83,0,0,0-2.74-2,8.35,8.35,0,0,0-6.65,0,7.82,7.82,0,0,0-2.74,2,9.59,9.59,0,0,0-1.84,3.27A15.18,15.18,0,0,0,655.1,72.75Z"/><path class="cls-7" d="M703.6,82L698,60.17h-0.11L692.37,82h-4.9l-8.83-27.51h5L689.87,77H690l5.53-22.51h4.95L706.21,77h0.11l6.17-22.51h4.68L708.39,82H703.6Z"/><path class="cls-7" d="M721.22,49.58V44h4.52v5.53h-4.52Zm4.52,4.95V82h-4.52V54.53h4.52Z"/><path class="cls-7" d="M736.49,54.53v4.36h0.11a9.52,9.52,0,0,1,8.94-5,11.94,11.94,0,0,1,4.52.75A7.45,7.45,0,0,1,753,56.71a7.71,7.71,0,0,1,1.57,3.17,17,17,0,0,1,.45,4.07V82h-4.52V63.41a5.47,5.47,0,0,0-1.49-4,5.54,5.54,0,0,0-4.1-1.49,9.21,9.21,0,0,0-3.59.64,6.73,6.73,0,0,0-2.53,1.81,7.8,7.8,0,0,0-1.52,2.74,11.14,11.14,0,0,0-.51,3.43V82h-4.52V54.53h4.26Z"/><path class="cls-7" d="M781.93,89.81q-3.09,3.35-9.68,3.35a18.76,18.76,0,0,1-3.91-.43,12,12,0,0,1-3.62-1.38,8.42,8.42,0,0,1-2.69-2.5,7.1,7.1,0,0,1-1.17-3.78h4.52a3.34,3.34,0,0,0,.77,2.08,5.64,5.64,0,0,0,1.76,1.38,8.53,8.53,0,0,0,2.26.77,12.2,12.2,0,0,0,2.34.24,8.39,8.39,0,0,0,3.78-.77,7.1,7.1,0,0,0,2.55-2.13,8.8,8.8,0,0,0,1.46-3.27,18.34,18.34,0,0,0,.45-4.2V77.36h-0.11a7.61,7.61,0,0,1-3.54,3.75,11,11,0,0,1-5,1.2,12.12,12.12,0,0,1-5.37-1.12,11.24,11.24,0,0,1-3.83-3,12.78,12.78,0,0,1-2.31-4.42,18.21,18.21,0,0,1-.77-5.35,20.91,20.91,0,0,1,.64-5,13.72,13.72,0,0,1,2.13-4.68,11.66,11.66,0,0,1,3.94-3.46,12.25,12.25,0,0,1,6-1.36A10.16,10.16,0,0,1,777.3,55a8.06,8.06,0,0,1,3.41,3.43h0.05V54.53H785V79.7Q785,86.45,781.93,89.81Zm-5.77-12.37A7.42,7.42,0,0,0,778.69,75a11.22,11.22,0,0,0,1.41-3.43,16.66,16.66,0,0,0,.45-3.83,15.08,15.08,0,0,0-.43-3.56A10,10,0,0,0,778.77,61a7.07,7.07,0,0,0-2.42-2.26,7.2,7.2,0,0,0-3.62-.85,7.8,7.8,0,0,0-3.72.82,7.23,7.23,0,0,0-2.53,2.21A9.36,9.36,0,0,0,765,64.11a15.51,15.51,0,0,0-.45,3.78,18.93,18.93,0,0,0,.37,3.73A10.57,10.57,0,0,0,766.23,75a7.18,7.18,0,0,0,2.4,2.45,6.9,6.9,0,0,0,3.72.93A7.33,7.33,0,0,0,776.16,77.44Z"/></svg>